<?xml version="1.0" encoding="UTF-8"?>
<svg id="Layer_1" data-name="Layer 1" xmlns="http://www.w3.org/2000/svg" viewBox="0 0 137 53">
  <defs>
    <style>
      .cls-1 {
        opacity: .97;
      }

      .cls-1, .cls-2, .cls-3, .cls-4, .cls-5, .cls-6 {
        stroke-width: 0px;
      }

      .cls-1, .cls-5 {
        fill: #fff;
      }

      .cls-7 {
        stroke: #fff;
        stroke-miterlimit: 10;
      }

      .cls-7, .cls-3 {
        fill: none;
      }

      .cls-4 {
        fill: #cf4647;
      }

      .cls-6 {
        fill: #fdb827;
      }
    </style>
  </defs>
  <path class="cls-5" d="M23.19,37.82c-.93-2.05-2.73-3.57-4.67-4.71s-4.04-1.96-6.01-3.04c-1.28-.7-2.54-1.54-3.33-2.76-.81-1.26-1.05-2.89-.56-4.31.49-1.42,1.72-2.57,3.19-2.89,1.02-.23,2.1-.06,3.09.27,2.72.9,4.78,2.79,6.21,5.24.69,1.19,1.28,2.43,2,3.61.05.08.12.18.22.18.14,0,.2-.18.22-.32.2-1.79.16-3.61-.19-5.38-.31-1.6-.79-3.5-2.04-4.64-.12-.11-.24-.21-.38-.3-.61-.41-1.35-.59-2.07-.73-2.62-.51-5.36-.66-7.95,0-2.59.66-5.03,2.19-6.4,4.48-1.87,3.11-1.42,7.42,1.05,10.08,1.41,1.52,3.32,2.46,5.19,3.34,1.87.88,3.8,1.76,5.3,3.18s2.51,3.55,2.06,5.57c-.49,2.17-2.64,3.73-4.85,3.88-2.22.15-4.39-.94-5.92-2.56-.71-.76-1.3-1.62-1.78-2.55-.7-1.34-1.07-2.79-1.43-4.25-.17-.68-.34-1.36-.51-2.04-.05-.2-.05-.61-.31-.66s-.38.26-.45.44c-.33.81-.4,1.7-.46,2.57-.05.64-.12,1.26-.04,1.89.09.7.18,1.39.28,2.09.2,1.41.41,2.82.65,4.23.06.34.12.69.29.99.29.5.85.79,1.41.96,2.89.9,5.83,1.55,8.88,1.18,3.08-.38,6.11-1.81,8.03-4.25s2.58-5.94,1.3-8.77Z"/>
  <path class="cls-1" d="M42.68,48.99c-4.07-.41-4.53-.97-4.53-5.62v-24.18c0-.35-.35-.58-.67-.46-.54.21-1.08.41-1.63.6-1.27.44-2.55.82-3.85,1.14-.8.2-1.61.38-2.41.55s-1.59.28-2.36.51c-.16.05-.92.27-.84.5.05.14.17.26.29.35.24.18.53.29.82.4.46.17.92.35,1.39.46s.97.17,1.45.31c.53.16,1.07.37,1.44.8s.5.97.58,1.51c.12.88.11,1.78.11,2.67v14.83c0,4.62-.45,5.2-4.32,5.62-.41.04-.72.39-.72.81v.47c0,.45.36.81.81.81h14.37c.4,0,.73-.33.73-.73v-.63c0-.37-.29-.69-.66-.72Z"/>
  <path class="cls-5" d="M102.64,50.25v-.47c0-.41.31-.76.72-.81,3.51-.43,3.89-1.15,3.89-5.75v-11.88c0-5.04-1.8-8.42-6.55-8.42-2.95,0-5.76,1.73-7.99,3.74v16.85c0,4.75.39,5.09,4.14,5.49.3.03.54.29.54.59v.88c0,.33-.27.6-.6.6h-14.25c-.39,0-.71-.32-.71-.71v-.68c0-.36.27-.66.63-.7,4.16-.47,4.55-.94,4.55-5.48v-14.83c0-4.28-2.42-4.83-5.47-5.39-.53-.1-.92-.56-.92-1.1h0c0-.54.39-1,.92-1.09,2.63-.48,7.24-1.16,9.62-2.08.75-.29,1.54.27,1.54,1.07v3.98c1.44-1.01,3.02-2.09,4.9-3.31,2.02-1.3,3.89-2.16,5.98-2.16,5.76,0,9.36,4.25,9.36,11.23v13.68c0,4.63.39,5.07,3.95,5.47.37.04.66.36.66.74v.61c0,.41-.33.74-.74.74h-13.35c-.45,0-.81-.36-.81-.81Z"/>
  <path class="cls-5" d="M114.8,21.42c-.09,0-.19,0-.28,0-.25-.01-.5-.08-.67-.26-.04-.05-.08-.11-.08-.17,0-.07.04-.14.08-.2.27-.41.61-.74.94-1.09.38-.38.74-.79,1.11-1.19,0-.01.02-.02.03-.03.06-.04.22-.01.3-.01h5.6s.42,0,.42,0v-5.43c0-.4.15-.77.43-1.06.89-.9,1.82-1.77,2.73-2.65.39-.38.78-.76,1.17-1.15.26-.26.46-.58.84-.68.14-.04.29-.04.44-.05.04,0,.09,0,.13.01.04.01.07.04.09.07.13.16.08.34.07.53,0,.14-.01.28-.02.42-.01.29-.02.59-.03.88-.02.62-.04,1.25-.06,1.87-.03,1.32-.06,2.65-.07,3.97-.01,1-.02,2-.02,3,0,.14.12.26.26.26h7.81c.08,0,.17.04.22.1.53.73.32,2.13-.44,2.78-.05.04-.12.06-.18.06h-7.41c-.14,0-.26.12-.26.26v18.17c0,5.83,2.3,6.91,4.18,6.91,1.4,0,2.75-.42,3.75-.85.35-.15.76.02.88.39l.23.65c.11.31-.03.65-.31.8l-4.25,2.26c-1.22.65-2.38.94-3.1.94-4.61,0-7.06-2.81-7.06-8.57v-20.95h-6.58c-.29,0-.58,0-.86,0Z"/>
  <path class="cls-3" d="M74.91,20.33c-3.31,0-6.55,3.1-7.56,8.93,4.03,0,8.07,0,12.31-.22,1.3,0,1.73-.36,1.73-1.44.07-3.82-2.45-7.27-6.48-7.27Z"/>
  <line class="cls-7" y1="52.5" x2="45.24" y2="52.5"/>
  <circle class="cls-1" cx="34.24" cy="9.9" r="4"/>
  <path class="cls-3" d="M71.39,27.6c.07-3.82-2.45-7.27-6.48-7.27-1.6,0-3.18.73-4.5,2.13l-2.18,6.79c3.74,0,7.49-.01,11.43-.21,1.3,0,1.73-.36,1.73-1.44Z"/>
  <path class="cls-1" d="M77.75,41.89c-.94.76-1.87,1.53-2.89,2.19-1.82,1.17-3.89,1.89-6.07,1.89-4.98,0-10.69-3.77-10.79-12.88l-1.73,5.4-2.72,3.77c2.09,5.05,6.56,8.68,12.79,8.68,1.03,0,2.06-.21,3.04-.51,1.65-.51,3.2-1.33,4.6-2.33.9-.64,1.74-1.36,2.52-2.14.42-.42.81-.88,1.23-1.29.49-.48.56-1.04.73-1.67.06-.2.13-.4.15-.61.02-.22.03-.51-.06-.71-.15-.35-.63.07-.81.22Z"/>
  <path class="cls-1" d="M65.91,20.33c4.03,0,6.55,3.46,6.48,7.27,0,1.08-.43,1.44-1.73,1.44-3.94.2-7.69.21-11.43.21l-.99,3.09c8.5-.29,17.55-.93,18.98-1.21,1.15-.29,1.37-.94,1.44-2.38,0-5.76-4.75-11.16-11.02-11.16-1.53,0-3.1.33-4.63.93l-.69,1.08-.92,2.86c1.32-1.4,2.9-2.13,4.5-2.13Z"/>
  <polygon class="cls-6" points="48.68 36.37 49.27 40.19 51.98 37.43 52.57 41.25 55.27 38.48 57 33.08 57.24 32.35 58.23 29.26 60.41 22.46 61.32 19.61 64.43 9.93 54.54 6.76 45.39 35.31 45.98 39.13 48.68 36.37"/>
  <rect class="cls-6" x="59.44" y="1.51" width="1.15" height="10.38" transform="translate(35.31 61.8) rotate(-72.22)"/>
  <path class="cls-4" d="M65.8,5.66c.6-1.88-.43-3.9-2.32-4.5l-3.06-.98c-1.88-.6-3.9.43-4.5,2.32l-.32.98,9.88,3.17.32-.98Z"/>
  <polygon class="cls-2" points="64.78 8.84 54.9 5.67 54.9 5.67 54.54 6.76 64.43 9.93 64.78 8.84"/>
  <polygon class="cls-5" points="45.45 52.12 47.48 49.3 45.44 48.65 45.45 52.12"/>
  <polygon class="cls-2" points="52.57 41.25 51.98 37.43 49.27 40.19 48.68 36.37 45.98 39.13 45.39 35.31 45.44 48.65 47.48 49.3 52.55 42.25 55.27 38.48 52.57 41.25"/>
  <polygon class="cls-2" points="65.48 6.64 65.48 6.64 55.6 3.47 55.6 3.47 55.25 4.57 65.13 7.74 65.48 6.64"/>
</svg>